<?xml version="1.0" encoding="utf-8"?>
<!-- Generator: Adobe Illustrator 23.1.1, SVG Export Plug-In . SVG Version: 6.00 Build 0)  -->
<svg version="1.1"
	 id="svg2985" inkscape:version="0.91 r13725" sodipodi:docname="CUNY_New_LogoTR.svg" xmlns:cc="http://creativecommons.org/ns#" xmlns:dc="http://purl.org/dc/elements/1.1/" xmlns:inkscape="http://www.inkscape.org/namespaces/inkscape" xmlns:rdf="http://www.w3.org/1999/02/22-rdf-syntax-ns#" xmlns:sodipodi="http://sodipodi.sourceforge.net/DTD/sodipodi-0.dtd" xmlns:svg="http://www.w3.org/2000/svg"
	 xmlns="http://www.w3.org/2000/svg" xmlns:xlink="http://www.w3.org/1999/xlink" x="0px" y="0px" viewBox="0 0 121.9 58.6"
	 style="enable-background:new 0 0 121.9 58.6;" xml:space="preserve">
<style type="text/css">
	.st0{fill:#F4FCFF;}
	.st1{fill:#FFFFFF;}
	.st2{fill:none;}
</style>
<title  id="title3759">CUNY Logo</title>
<sodipodi:namedview  bordercolor="#666666" borderopacity="1" fit-margin-bottom="0" fit-margin-left="0" fit-margin-right="0" fit-margin-top="0" gridtolerance="10" guidetolerance="10" id="namedview2987" inkscape:current-layer="g2993" inkscape:cx="133.20125" inkscape:cy="-83.626669" inkscape:pageopacity="0" inkscape:pageshadow="2" inkscape:window-height="744" inkscape:window-maximized="1" inkscape:window-width="1280" inkscape:window-x="-4" inkscape:window-y="-4" inkscape:zoom="1.0824912" objecttolerance="10" pagecolor="#ffffff" showgrid="false">
	</sodipodi:namedview>
<g id="g2993" transform="matrix(1.25,0,0,-1.25,-361.79875,717.33063)" inkscape:groupmode="layer" inkscape:label="CUNYBrandBook06242011">
	<path id="path3545" inkscape:connector-curvature="0" class="st0" d="M296,540.3v-13.2h4.7L296,540.3"/>
	<path id="path3547" inkscape:connector-curvature="0" class="st0" d="M312.8,555.4c1.3,0,1.9,0.8,1.9,2.3v16h-3.9v-16
		C310.8,556.2,311.5,555.4,312.8,555.4"/>
	<path id="path3549" inkscape:connector-curvature="0" class="st1" d="M318.4,573.7v-15.9c0-3.6-2.1-5.6-5.6-5.6
		c-3.5,0-5.6,2-5.6,5.6v15.9h-7c2.3-0.8,3.5-3,3.5-5.5v-1.6h-3.6v1.6c0,1.8-0.8,2.6-1.8,2.6c-1.5,0-1.9-0.8-1.9-2.3v-10.7
		c0-1.6,0.5-2.3,1.9-2.3c1.3,0,1.8,0.8,1.8,2.1v2.6h3.6v-2.4c0-3-1.8-5.4-5.4-5.4c-3.8,0-5.6,2.4-5.6,5.4v10.9
		c0,2.4,1.1,4.4,3.5,5.1h-6.8v-46.7h3.3v21.2h3.4l4.4-12.1h0.1v12.1h3.3v-21.2h7v8.8l-4.4,12.4h3.7l2.6-8.1h0.1l2.4,8.1h3.7
		l-4.4-12.4v-8.8h21.6v46.7"/>
	<path id="path3551" inkscape:connector-curvature="0" class="st2" d="M292.7,568.6v-10.9c0-3,1.8-5.4,5.6-5.4
		c3.6,0,5.4,2.4,5.4,5.4v2.4h-3.6v-2.6c0-1.4-0.4-2.1-1.8-2.1c-1.5,0-1.9,0.8-1.9,2.3v10.7c0,1.6,0.5,2.3,1.9,2.3
		c0.9,0,1.8-0.8,1.8-2.6v-1.6h3.6v1.6c0,2.5-1.1,4.7-3.5,5.5h-4C293.8,573,292.7,571,292.7,568.6"/>
	<path id="path3553" inkscape:connector-curvature="0" class="st2" d="M300.6,548.3v-12.1h-0.1l-4.4,12.1h-3.4v-21.2h3.3v13.2h0.1
		l4.6-13.2h3.2v21.2"/>
	<path id="path3555" inkscape:connector-curvature="0" class="st2" d="M318.9,548.3h-3.7l-2.4-8.1h-0.1l-2.6,8.1h-3.7l4.4-12.4v-8.8
		h3.6v8.8"/>
	<path id="path3557" inkscape:connector-curvature="0" class="st2" d="M312.8,552.2c3.5,0,5.6,2,5.6,5.6v15.9h-3.6v-16
		c0-1.6-0.6-2.3-1.9-2.3c-1.3,0-1.9,0.8-1.9,2.3v16h-3.6v-15.9C307.2,554.2,309.3,552.2,312.8,552.2"/>
	<path id="path3559" inkscape:connector-curvature="0" class="st0" d="M339.7,573.7h6v-0.7h-2.6V565h-0.8v8.1h-2.6"/>
	<path id="path3561" inkscape:connector-curvature="0" class="st0" d="M346.8,565v8.8h0.7v-3.5c0.7,0.7,1.2,1.1,2.2,1.1
		c1.3,0,1.9-0.8,1.9-2.1V565h-0.7v4.2c0,1-0.3,1.6-1.3,1.6c-0.8,0-1.2-0.5-2-1.2V565"/>
	<path id="path3563" inkscape:connector-curvature="0" class="st0" d="M356.9,568.7c-0.1,1.3-0.7,2.1-1.8,2.1
		c-1.3,0-1.8-1.3-1.8-2.1H356.9z M353.2,568.1c0-1.4,0.6-2.7,2-2.7c0.8,0,1.2,0.3,1.8,1.3l0.6-0.3c-0.7-1.1-1.3-1.5-2.5-1.5
		c-1.7,0-2.7,1.1-2.7,3.3c0,2,1,3.3,2.6,3.3c1.7,0,2.5-1.3,2.5-3.3"/>
	<path id="path3565" inkscape:connector-curvature="0" class="st0" d="M366.8,571.2c-0.4,1.3-1.1,2-2.1,2c-1.7,0-2.5-1.7-2.5-3.9
		c0-2.2,0.8-3.9,2.6-3.9c1.4,0,1.9,1,2.2,2.1l0.8-0.1c-0.3-1.6-1.1-2.7-3-2.7c-2.1,0-3.4,1.8-3.4,4.5c0,2.7,1.3,4.5,3.4,4.5
		c1.6,0,2.4-1.1,2.8-2.5"/>
	<path id="path3567" inkscape:connector-curvature="0" class="st0" d="M369.6,565h-0.7v6.3h0.7V565z M368.9,572.7v1.1h0.7v-1.1"/>
	<path id="path3569" inkscape:connector-curvature="0" class="st0" d="M371.7,571.3v2.1h0.7v-2.1h1.4v-0.6h-1.4v-4.6
		c0-0.4,0.2-0.6,0.6-0.6c0.2,0,0.5,0.1,0.7,0.1V565c-0.2,0-0.5-0.1-0.7-0.1c-1,0-1.4,0.3-1.4,1.1v4.8h-0.9v0.6"/>
	<path id="path3571" inkscape:connector-curvature="0" class="st0" d="M377.2,566.1L377.2,566.1l1.8,5.1h0.8l-2.4-6.8
		c-0.4-1.2-0.9-1.8-2-1.8c-0.3,0-0.5,0-0.7,0.1v0.6c0.2,0,0.4-0.1,0.7-0.1c0.5,0,1.1,0.4,1.4,1.8l-2.2,6.2h0.8"/>
	<path id="path3573" inkscape:connector-curvature="0" class="st0" d="M340.7,561v-6c0-1.7,0.8-2.3,2.4-2.3c1.6,0,2.4,0.6,2.4,2.3v6
		h0.8v-5.9c0-2-1-3-3.2-3c-2.1,0-3.2,1-3.2,3v5.9"/>
	<path id="path3575" inkscape:connector-curvature="0" class="st0" d="M347.6,552.3v6.3h0.7v-1c0.7,0.7,1.2,1.1,2.2,1.1
		c1.3,0,1.9-0.8,1.9-2.1v-4.3h-0.7v4.2c0,1-0.3,1.6-1.3,1.6c-0.8,0-1.2-0.5-2-1.2v-4.7"/>
	<path id="path3577" inkscape:connector-curvature="0" class="st0" d="M354.4,552.3h-0.7v6.3h0.7V552.3z M353.7,560v1.1h0.7V560"/>
	<path id="path3579" inkscape:connector-curvature="0" class="st0" d="M355.5,558.6h0.8l1.7-5.2h0l1.8,5.2h0.8l-2.2-6.3h-0.7"/>
	<path id="path3581" inkscape:connector-curvature="0" class="st0" d="M365.2,556c-0.1,1.3-0.7,2.1-1.8,2.1c-1.3,0-1.8-1.3-1.8-2.1
		H365.2z M361.6,555.4c0-1.4,0.6-2.7,2-2.7c0.8,0,1.2,0.3,1.8,1.3l0.6-0.3c-0.7-1.1-1.3-1.5-2.5-1.5c-1.7,0-2.7,1.1-2.7,3.3
		c0,2,1,3.3,2.6,3.3c1.7,0,2.5-1.3,2.5-3.3"/>
	<path id="path3583" inkscape:connector-curvature="0" class="st0" d="M367.1,552.3v6.3h0.7v-1.2h0c0.3,0.8,1,1.3,1.8,1.3h0.3V558
		h-0.3c-0.8,0-1.8-0.9-1.8-2.2v-3.6"/>
	<path id="path3585" inkscape:connector-curvature="0" class="st0" d="M371,553.8c0.6-0.9,1.1-1.1,2-1.1c0.8,0,1.4,0.5,1.4,1.2
		c0,1.8-3.7,0.8-3.7,3.1c0,1.2,0.9,1.7,2,1.7c1.1,0,1.7-0.4,2.2-1.1l-0.6-0.4c-0.4,0.6-0.9,0.9-1.6,0.9c-0.7,0-1.3-0.3-1.3-1.1
		c0-1.5,3.7-0.6,3.7-3.1c0-1.1-1-1.8-2.2-1.8c-1,0-1.8,0.4-2.4,1.3"/>
	<path id="path3587" inkscape:connector-curvature="0" class="st0" d="M377,552.3h-0.7v6.3h0.7V552.3z M376.3,560v1.1h0.7V560"/>
	<path id="path3589" inkscape:connector-curvature="0" class="st0" d="M379,558.6v2.1h0.7v-2.1h1.4V558h-1.4v-4.6
		c0-0.4,0.2-0.6,0.6-0.6c0.2,0,0.5,0.1,0.7,0.1v-0.6c-0.2,0-0.5-0.1-0.7-0.1c-1,0-1.4,0.3-1.4,1.1v4.8H378v0.6"/>
	<path id="path3591" inkscape:connector-curvature="0" class="st0" d="M384.4,553.4L384.4,553.4l1.8,5.1h0.8l-2.4-6.8
		c-0.4-1.2-0.9-1.8-2-1.8c-0.3,0-0.5,0-0.7,0.1v0.6c0.2,0,0.5-0.1,0.7-0.1c0.5,0,1.1,0.5,1.4,1.8l-2.2,6.2h0.8"/>
	<path id="path3593" inkscape:connector-curvature="0" class="st0" d="M340.6,542.9c0-1.7,0.6-2.7,1.9-2.7c1.3,0,1.9,1,1.9,2.7
		c0,1.7-0.6,2.7-1.9,2.7C341.2,545.6,340.6,544.6,340.6,542.9z M345.1,542.9c0-1.7-0.6-3.3-2.6-3.3c-2,0-2.6,1.6-2.6,3.3
		c0,1.7,0.6,3.3,2.6,3.3C344.5,546.1,345.1,544.6,345.1,542.9"/>
	<path id="path3595" inkscape:connector-curvature="0" class="st0" d="M347.3,545.4v-5.7h-0.7v5.7h-1v0.6h1v0.9
		c0,1.1,0.4,1.7,1.5,1.7c0.3,0,0.5,0,0.8-0.1v-0.6c-0.2,0.1-0.4,0.1-0.7,0.1c-0.6,0-0.9-0.3-0.9-1v-1h1.3v-0.6"/>
	<path id="path3597" inkscape:connector-curvature="0" class="st0" d="M339.9,535.8h1.3l4.2-7.3h0v7.3h0.8v-8.8h-0.8l-4.7,8.1h0
		v-8.1h-0.8"/>
	<path id="path3599" inkscape:connector-curvature="0" class="st0" d="M351.8,530.8c-0.1,1.3-0.7,2.1-1.8,2.1
		c-1.3,0-1.8-1.3-1.8-2.1H351.8z M348.2,530.2c0-1.4,0.6-2.7,2-2.7c0.8,0,1.2,0.3,1.8,1.3l0.6-0.3c-0.7-1.1-1.3-1.5-2.5-1.5
		c-1.7,0-2.7,1.1-2.7,3.3c0,2,1,3.3,2.6,3.3c1.7,0,2.5-1.3,2.5-3.3"/>
	<path id="path3601" inkscape:connector-curvature="0" class="st0" d="M353.2,533.4h0.7l1.4-5.1h0l1.4,5.1h0.7l1.4-5.1h0l1.4,5.1
		h0.8l-1.8-6.3h-0.7l-1.4,5.1h0l-1.4-5.1h-0.8"/>
	<path id="path3603" inkscape:connector-curvature="0" class="st0" d="M366.3,530.8l-2.7,5.1h0.9l2.2-4.3l2.3,4.3h0.9l-2.8-5.1v-3.7
		h-0.8"/>
	<path id="path3605" inkscape:connector-curvature="0" class="st0" d="M369.8,530.2c0-1.7,0.6-2.7,1.9-2.7c1.3,0,1.9,1,1.9,2.7
		c0,1.7-0.6,2.7-1.9,2.7C370.3,532.9,369.8,531.9,369.8,530.2z M374.2,530.2c0-1.7-0.6-3.3-2.6-3.3c-2,0-2.6,1.6-2.6,3.3
		c0,1.7,0.6,3.3,2.6,3.3C373.6,533.5,374.2,531.9,374.2,530.2"/>
	<path id="path3607" inkscape:connector-curvature="0" class="st0" d="M375.3,527.1v6.3h0.7v-1.2h0c0.3,0.8,1,1.3,1.8,1.3h0.3v-0.7
		h-0.3c-0.8,0-1.8-0.9-1.8-2.2v-3.6"/>
	<path id="path3609" inkscape:connector-curvature="0" class="st0" d="M379.2,527.1v8.8h0.7V530l2.9,3.4h0.8l-2.1-2.4l2.4-4h-0.8
		l-2,3.5l-1.3-1.4v-2"/>
</g>
</svg>
