<svg id="Layer_1" data-name="Layer 1" xmlns="http://www.w3.org/2000/svg" viewBox="0 0 511.82 103.32"><defs><style>.cls-1{fill:#666;}.cls-2{fill:#fbeffa;}.cls-3{fill:#6b2865;}.cls-4{fill:#fafbf1;}.cls-5{fill:#fdfdfe;}.cls-6{fill:#656565;}.cls-7{fill:#696969;}.cls-8{fill:#676767;}.cls-9{fill:#489576;}.cls-10{fill:#fcfbfb;}.cls-11{fill:#fbfaf8;}.cls-12{fill:#fafcf9;}.cls-13{fill:#f4fdfb;}.cls-14{fill:#fbfcfa;}.cls-15{fill:#f6fcfa;}.cls-16{fill:#fbfbfb;}.cls-17{fill:#f9fbfa;}.cls-18{fill:#dd7858;}.cls-19{fill:#eac01e;}.cls-20{fill:#f8faf2;}.cls-21{fill:#fcf8f1;}.cls-22{fill:#d16d5f;}.cls-23{fill:#ec804f;}.cls-24{fill:#edbb30;}.cls-25{fill:#ebbf30;}.cls-26{fill:#fcf8f5;}.cls-27{fill:#fcf8f6;}.cls-28{fill:#fefef6;}.cls-29{fill:#be6960;}.cls-30{fill:#ce705d;}.cls-31{fill:#e38557;}.cls-32{fill:#c6646f;}.cls-33{fill:#f9f8f9;}.cls-34{fill:#eebf21;}.cls-35{fill:#f2bb2b;}.cls-36{fill:#c56361;}.cls-37{fill:#e47b54;}.cls-38{fill:#fdfdf1;}.cls-39{fill:#f7fef6;}.cls-40{fill:#fefcf1;}.cls-41{fill:#fefdf3;}.cls-42{fill:#fdfdf4;}.cls-43{fill:#f6fdfe;}.cls-44{fill:#e48843;}.cls-45{fill:#fefef3;}.cls-46{fill:#fefef0;}.cls-47{fill:#7c5174;}.cls-48{fill:#eec035;}.cls-49{fill:#fdf6ee;}.cls-50{fill:#e37e55;}.cls-51{fill:#eff8ee;}.cls-52{fill:#fdfdf3;}.cls-53{fill:#c6615d;}.cls-54{fill:#fafef0;}.cls-55{fill:#fefeed;}.cls-56{fill:#f0fef9;}.cls-57{fill:#f3fefe;}.cls-58{fill:#f7f7f7;}.cls-59{fill:#ad6263;}.cls-60{fill:#fefefe;}.cls-61{fill:#8e407f;}.cls-62{fill:#714472;}.cls-63{fill:#469477;}.cls-64{fill:#e67e51;}.cls-65{fill:#439776;}.cls-66{fill:#e78153;}.cls-67{fill:#ecbe1f;}.cls-68{fill:#449474;}.cls-69{fill:#fafcf7;}.cls-70{fill:#eac113;}.cls-71{fill:#fcfef3;}.cls-72{fill:#edbe24;}.cls-73{fill:#ecbf35;}.cls-74{fill:#ecbd1b;}.cls-75{fill:#e7c837;}.cls-76{fill:#f6eace;}.cls-77{fill:#fdf0c9;}.cls-78{fill:#468a70;}.cls-79{fill:#f9b82c;}.cls-80{fill:#5a8e78;}.cls-81{fill:#eb7f44;}.cls-82{fill:#fdfcf1;}.cls-83{fill:#f8fef2;}.cls-84{fill:#f7bc2b;}.cls-85{fill:#cf8b74;}.cls-86{fill:#e4c939;}.cls-87{fill:#41876b;}.cls-88{fill:#348c68;}.cls-89{fill:#3a9875;}.cls-90{fill:#3d9a77;}.cls-91{fill:#a65173;}.cls-92{fill:#ba5b6a;}.cls-93{fill:#ae586d;}.cls-94{fill:#964b75;}.cls-95{fill:#7c3368;}.cls-96{fill:#e2784c;}.cls-97{fill:#ca6961;}.cls-98{fill:#d27759;}.cls-99{fill:#ecbb35;}.cls-100{fill:#e6bf41;}.cls-101{fill:#e3c21c;}.cls-102{fill:#faf6d8;}.cls-103{fill:#4b9377;}.cls-104{fill:#f2be1b;}.cls-105{fill:#f9ba2c;}.cls-106{fill:#e88147;}.cls-107{fill:#da784f;}.cls-108{fill:#e87459;}.cls-109{fill:#ec7840;}.cls-110{fill:#b76e64;}.cls-111{fill:#ddc81a;}.cls-112{fill:#e0ad4e;}.cls-113{fill:#e7af5f;}.cls-114{fill:#eaae47;}.cls-115{fill:#d49777;}.cls-116{fill:#d57658;}.cls-117{fill:#efbe11;}.cls-118{fill:#df775b;}.cls-119{fill:#b16366;}.cls-120{fill:#935270;}.cls-121{fill:#f5be12;}.cls-122{fill:#da7c4e;}.cls-123{fill:#a0407b;}.cls-124{fill:#dc883b;}.cls-125{fill:#ecbc2d;}.cls-126{fill:#f2ba29;}.cls-127{fill:#f3bd1b;}.cls-128{fill:#f1ab33;}</style></defs><title>ISMAR-logo-vectorized</title><path class="cls-1" d="M516.15,46.13c-7.83,21.29-25.43,24.71-45.24,25.24L514.62,88.8c-5.15.51-8.66.33-12.29-1.12C489.7,82.66,477,77.89,464.27,73c-1.21-.46-2.35-1.36-4.1-.6,0,4.5,0,9.15,0,13.79,0,1.22.45,2.76-1.7,2.88-2.31.14-2.25-1.32-2.25-2.9q0-37,0-73.93c0-1.47-.27-3.11,2.08-3.08,12,.13,24.05-.63,35.92.58C505.67,10.93,512,19.2,515.1,29.88c.32,1.1.18,2.33,1,3.25Z" transform="translate(-4.33 -1.72)"/><path class="cls-2" d="M9.9,71.08l-1.58,0c-1.7,1.13-2.68-.6-4-1v-4a1.16,1.16,0,0,1,1.18-.33c1.76.94,3,2.51,4.63,3.64a2,2,0,0,1,.58,1.16C10.67,71.12,10.38,71.27,9.9,71.08Z" transform="translate(-4.33 -1.72)"/><path class="cls-3" d="M5.24,66.17a6.94,6.94,0,0,1-.91,0v-4l1-.91A1.62,1.62,0,0,1,7.5,61c1,1.94.23,3.59-.85,5.2A1,1,0,0,1,5.24,66.17Z" transform="translate(-4.33 -1.72)"/><path class="cls-4" d="M4.33,70.12c1.75-1.34,2.49,1.32,4,1a5.45,5.45,0,0,1-4,2Z" transform="translate(-4.33 -1.72)"/><path class="cls-5" d="M95.3,25.13c5-.85,5.67,2.1,4.82,5.88-1.84,8.19.57,16.4-.24,24.62-.25,2.48,2.87,1,4.41,1.49a1.84,1.84,0,0,1,.49,1.87c-2,2.8,2.1,3.28,2,5.35a2.16,2.16,0,0,1-.57,1.16,37.21,37.21,0,0,0-4.06,2.11,6.63,6.63,0,0,1-3.36.37c-3.41-.58-5,1-5.54,4.17a5,5,0,0,1-.65,1.2,27.34,27.34,0,0,1-7,4.34,7.69,7.69,0,0,1-1.34.41,10.41,10.41,0,0,1-1.38.18c-3.08-.15-5.72,1.21-8.26,2.63-2,1.12-3,.51-3.74-1.37a7.81,7.81,0,0,1,.79-3.35,27.19,27.19,0,0,1,2.19-3.42c1.77-1.75.32-3.33-.28-4.94a3.48,3.48,0,0,1,.24-2.61c.75-1.22,2.74-1,3.09-2.7a7.55,7.55,0,0,0,0-2.92c-.41-1.59-2.47-1.53-3-3a1.88,1.88,0,0,1,.52-1.89,2.08,2.08,0,0,1,.9-.4c6.68-.79,8-3.72,4.65-10,.33.58-.3-.23-.15.15,2,4.92,4.51,10-4.64,9.5-2.76-1.45-1-5.22-3.51-6.8-1.13-.88-2.45-.72-3.75-.75l-3.55,0c-.76,0-1.51,0-2.26,0-3.67-.35-6.16-2.57-8.34-5.28A9,9,0,0,1,53,37.26a76.87,76.87,0,0,1,.1-10.73,6.39,6.39,0,0,1,.6-2.14c1.11-1.55,2.75-2.5,4.21-3.65a8.6,8.6,0,0,0,3.84-3.19c1.13-1.31,1.48-2.67.26-4.12A5.73,5.73,0,0,1,60.94,11c0-1.57,1.71-1.09,2.37-1.88,2.66.67,3.16-2.2,4.93-3a3.12,3.12,0,0,1,1.16,2,44.11,44.11,0,0,1,.24,5.14c.21,3.44,2.55,5.4,5.08,7.22,1.7,1.47,3.59,2.68,5.37,4.05,3.29,1.67,5.82,4,6.91,7.68A5.89,5.89,0,0,1,87.1,35c-.76,2.85-1.6,5.69-1.22,8.7a14.47,14.47,0,0,0-.09,2.63c2.63,2.9,3.94.48,5.14-1.41,2.33-3.7,2.57-8.15,4.06-12.16.4-1.09-.43-1.46-.93-2.21C92.71,28.54,92.87,26.48,95.3,25.13Z" transform="translate(-4.33 -1.72)"/><path class="cls-6" d="M434.32,88.53c-2.68,1.12-4.33.67-5.32-2-.76-2-2.21-3.81-2.72-5.85-2.26-9-8-11.19-16.82-10.58-12.1.84-24.31.3-36.46.15-2.9,0-4.56.78-5.69,3.55-1.76,4.3-4.08,8.36-5.9,12.64-1.09,2.54-2.61,3.17-5.38,2.08q11.24-23.64,22.43-47.16,7-14.59,13.94-29.18c.63-1.32,1.17-3,3-2.89,1.31.07,1.78,1.38,2.28,2.42Q416,50.1,434.32,88.53Z" transform="translate(-4.33 -1.72)"/><path class="cls-1" d="M317.83,39q-8.28,13.8-16.58,27.61c-3.47,5.79-5.46,5.84-8.84,0-4.47-7.71-8.85-15.47-13.27-23.21A32.79,32.79,0,0,1,278,39.77c-.35-1.62.43-2.39,2.14-1.63l16.8,27.93c9.74-16.48,19.28-32.62,28.82-48.74,1.19-2,2.4-4,3.7-5.92.66-1,1.59-1.77,2.94-1.31a2.64,2.64,0,0,1,1.8,2.71c0,.83,0,1.66,0,2.5,0,23.15,0,46.3-.07,69.45,0,1.5,1.3,4.1-1.75,4.26-3.61.19-2.09-2.81-2.09-4.35-.11-21.81-.08-43.62-.88-65.82L318.85,37C319,37.92,319.06,38.76,317.83,39Z" transform="translate(-4.33 -1.72)"/><path class="cls-1" d="M222.27,45.08c-6.73-1.38-13.54-.87-20.33-.89-5.32,0-10.65.08-16-.09-8.29-.25-14-4-15.56-10-2.13-8.12.77-16.38,7.41-20.66A26.88,26.88,0,0,1,192.4,9C204.71,9,217,9,229.33,9c1.34,0,3.35-.68,3.51,1.62.19,2.66-2,2.15-3.53,2.17-12.81.14-25.62,0-38.41.43-9.14.28-15.16,5-16.72,12.14-1.93,8.82,2,14.12,11.09,14.78,2.65.2,5.31.29,8,.38,10.35.33,20.83-1.87,31,1.77C224.65,43.94,223.66,44.65,222.27,45.08Z" transform="translate(-4.33 -1.72)"/><path class="cls-7" d="M280.09,38.14c-3.47,1.16.33,3.65-.95,5.22q-7.27-11.8-14.55-23.61c-1.85.61-1,2-1,2.93-.06,20.62,0,41.25-.07,61.87,0,1.44.58,3.13-.71,4.24a2.77,2.77,0,0,1-2.35.07c-1.59-.7-1-2.3-1-3.52q-.06-27.69,0-55.38c0-5.33,0-10.65,0-16,0-1.68.07-3.56,2.13-4,1.77-.38,2.63,1.12,3.4,2.42Q272.57,25.25,280.09,38.14Z" transform="translate(-4.33 -1.72)"/><path class="cls-8" d="M222.27,45.08l2-2.82c11.82,3.87,14.91,16.16,13.65,26.93-1.42,12.09-9.78,20.7-23.34,20.11s-26.93-.09-40.4-.18c-1.38,0-3.73,1.14-3.89-1.6-.18-3.07,2.34-2.16,3.95-2.16,13.14-.06,26.28,0,39.41,0,14.75,0,22.65-9.61,20.41-24.31C232.87,53.5,229.24,48.14,222.27,45.08Z" transform="translate(-4.33 -1.72)"/><path class="cls-1" d="M144.28,49c0-12,0-23.93.06-35.9,0-1.5-1.19-4.14,2-4s1.83,2.71,1.83,4.2q.12,35.89,0,71.8c0,1.49,1.19,4.11-2,4s-1.79-2.71-1.8-4.17C144.23,72.91,144.28,60.94,144.28,49Z" transform="translate(-4.33 -1.72)"/><path class="cls-9" d="M68.46,8.18l-.22-2c2.84-5.16,6-5.78,10.57-2,1.89,1.58,3.64,3.31,5.46,5,2.39,1.36,4.58,2.85,4.22,6.11a3.8,3.8,0,0,1-1.84,1.06c-.41.7-3.38-1.13-1.66,1.75a3.29,3.29,0,0,1-.29,3.22c-1.11,1.25-2.14,2.64-4.14,2.28a3.69,3.69,0,0,1-1.73-2.16c-1.94-4.84-6.2-7.73-9.56-11.37A18,18,0,0,0,68.46,8.18Z" transform="translate(-4.33 -1.72)"/><path class="cls-10" d="M7.34,61.21h-2c4-3.21,16.5-4.44,20.55-2-1.84,1.51-3.21-1.59-5-.44-.24,2.23,1.65,1.85,2.86,2.46A20,20,0,0,1,27,63.79c1-.37.9-1,.88-1.67-.07-1.72.59-3,2.55-2.88s1.86,1.6,1.83,2.93c0,2.31.07,4.09,3.2,4.52,4.29.59,2.74,3.55,1.82,6a.88.88,0,0,1-.94.71,22.85,22.85,0,0,1-3.58-1.76c-2.67-1.62-5.68-2.48-8.49-3.77-1.35-.73-2.72-1.41-4.1-2.07-1.7-.91-3.4-1.8-5.14-2.62a11.9,11.9,0,0,0-2.91-1c-.62-.1-1.22-.23-1.82-.38C9.35,61.58,8.26,61.77,7.34,61.21Z" transform="translate(-4.33 -1.72)"/><path class="cls-11" d="M71.31,79.12c.72.68.55,2.45,2.65,1,2.75-1.92,5.89-3.77,9.64-2.83C81.18,81.45,76.48,82,72.76,84a25.47,25.47,0,0,1-6.4.44C61.71,84.77,57.43,83.07,53,82c-1.18-.46-2.09-1.39-3.26-1.87-2.13-1.55-5.33-1.12-6.9-3.7a1.63,1.63,0,0,1,.45-1.33c2.13-.33,4.44-1.87,6.12,1,.17.29,1.3.4,1.32.34,1.79-4.74,5.1-.54,7.54-1.31.14-.08.37-.27.41-.24C62.31,78.08,67.33,77.06,71.31,79.12Z" transform="translate(-4.33 -1.72)"/><path class="cls-12" d="M63.31,9.14l-2,1.91c-1.62,1.84-3.82,1.28-5.84,1.42-1.53,0-3.17-.32-4.41,1a23.88,23.88,0,0,0-3.86,4.36C46.46,19,45.58,20,44.77,21a12.23,12.23,0,0,0-1.61,10.26,7.1,7.1,0,0,1,0,3.66,2.46,2.46,0,0,1-.9,1.18c-1.8-1.16-3.16-2.77-2.4-4.9.83-2.35-.21-3.66-1.61-5.23-2.87-3.22-1.15-8.61,3.2-9.13,2.54-.31,2.88-1.16,2.91-3.27.05-3.36,2.18-4.72,5.28-4.42A73.33,73.33,0,0,0,63.31,9.14Z" transform="translate(-4.33 -1.72)"/><path class="cls-13" d="M88.23,15.14l-4-6c2.27,0,4-.21,5,3.06,1.31,4.51,4,8.63,6,12.92-1.44,2.41.41,4.42.6,6.43.35,3.77-1.45,7.83-2.79,11.61-.57,1.58-.93,3.41-2.52,4.68-2.86,2.28-5.18,1.7-6.23-1.85,1.26-.69,3.11.28,4-1.44a10.24,10.24,0,0,0,1.85-4.1c.33-1.37.74-2.72,1-4.11,1.66-5.6-.08-10.81-1.79-16C88.82,18.63,87.47,17.12,88.23,15.14Z" transform="translate(-4.33 -1.72)"/><path class="cls-14" d="M72.26,46.13c2.81,1.71,2.58,4.31,2,7a1.37,1.37,0,0,1,0,2v2l-.42.51c-3,.86-4.16,3.5-5.55,5.91-1.45.82-3,1.36-4.45,2.23a3.35,3.35,0,0,1-3.58-.65h0c-2.19-3.38.39-5.57,2-8V55.3A2.32,2.32,0,0,1,64,54.15a7.72,7.72,0,0,0,6.36-3.4c.76-1.07.82-2.38,1.17-3.6A2.66,2.66,0,0,1,72.26,46.13Z" transform="translate(-4.33 -1.72)"/><path class="cls-15" d="M106.39,65.22c-.14-1.59-1.46-1.68-2.56-2.3-2.37-1.34-2.34-2.86.47-3.8a2.86,2.86,0,0,1,4,0c3-.73,6.23-.87,8-4a2.91,2.91,0,0,1,4,0c-1.24,1.33,4.1,2.67,0,4-3,1.61-6.47,2-9.12,4.29a11,11,0,0,1-2.77,2.07A2,2,0,0,1,106.39,65.22Z" transform="translate(-4.33 -1.72)"/><ellipse class="cls-16" cx="253.38" cy="51.5" rx="0.32" ry="49.27"/><path class="cls-17" d="M98.3,87.11c-.44,2.79-3,2.46-4.23,1.86-3.37-1.65-6.39-.32-9.54.25l-.45-.52c.38-2.37,2.64-2.94,4.1-4.29,3.24-1.87,5.71-5.09,9.72-5.66l.5.47-.1,3.89C97.7,84.44,96.11,85.77,98.3,87.11Z" transform="translate(-4.33 -1.72)"/><path class="cls-18" d="M78.39,93.19,74.24,96c-4.93,3.8-10,2.44-15,.33a3.86,3.86,0,0,1-1.15-3c.7-1.92,1.94-3,4.13-2.72,2.17,1.69,5.32,1,7.46,3.09.45.45,1.49-2,3.05-1.72,1.78-.16,3.56-.3,5.21.62C78.06,92.8,78.22,93,78.39,93.19Z" transform="translate(-4.33 -1.72)"/><path class="cls-19" d="M54.55,40.77c2.6,1.5,4.38,4.38,7.75,4.55,1.07,1.29-.24,2.92.61,4.25a2.94,2.94,0,0,1-.41,2c-1.19,1.22-2.26,2.75-4.33,1.65a1.1,1.1,0,0,1-.82-.21c-.56-2.32-2-4.09-3.36-6a5.87,5.87,0,0,1-.42-5.28A2,2,0,0,1,54.55,40.77Z" transform="translate(-4.33 -1.72)"/><path class="cls-20" d="M60.31,65.12l3.93-.06c.11.19.22.38.32.58-.09,1.59-1.25,2.77-1.62,4.26-.67,6.28-.08,7,5.64,6.58a7.54,7.54,0,0,1,3.28-.61l.48.47c-.06,1,.11,2.15-1,2.78-.66,0-1.31,0-2,0-4.17,0-8.67,1-11-4C58,71.59,61.52,68.83,60.31,65.12Z" transform="translate(-4.33 -1.72)"/><path class="cls-21" d="M59.28,95.41a20.72,20.72,0,0,0,15,.59c.19,2-.44,3.15-2.69,3.11-4.13-.06-8.25,0-12.38,0-3.28,0-3-1.67-2-3.83l.42-.53A1.29,1.29,0,0,1,59.28,95.41Z" transform="translate(-4.33 -1.72)"/><path class="cls-17" d="M106.32,73.22c.08.64-.07,1.45.27,1.89,1.22,1.59,2.77,3.51,1.16,5.14-1.77,1.8-4.06,1-6.09-.57-.75-.59-2.16-.33-3.26-.46l-.15-.16c-.25-2.62,2.18-3.06,3.53-4.37.93-.6,1.86-1.19,2.81-1.73l.63-.24A1.06,1.06,0,0,1,106.32,73.22Z" transform="translate(-4.33 -1.72)"/><path class="cls-22" d="M48.31,90.14l-2.13-2.7c-1.12-4.09,3.34-3.46,4.64-5.5,2.21-.52,2.62,1.57,3.79,2.58a10.07,10.07,0,0,1,2,2.81c-.89,2.42-3.09,3.29-5.16,4.34C50.08,91.81,49.19,91,48.31,90.14Z" transform="translate(-4.33 -1.72)"/><path class="cls-23" d="M106.32,73.22a7.77,7.77,0,0,1-1-.07c-2.2-.5-4-1.48-4.58-3.87,0-1.47,1.53-1.48,2.16-2.35.94-1,2.42-.91,3.45-1.74v0l1.8-.25.61.31c1,1.2,2.41,2.22,1.63,4.12Z" transform="translate(-4.33 -1.72)"/><path class="cls-24" d="M50.36,47.07a16.36,16.36,0,0,1-5.16-5.86c1-2.82,1.56-5.82,3.19-8.42a2.21,2.21,0,0,1,2.25.32c1.55,2.44.89,5.17,1,7.8-.36,1.92.75,4-.64,5.81Z" transform="translate(-4.33 -1.72)"/><path class="cls-15" d="M116.29,51.13c.67-3,3.44-2.53,4.64-1.67,3.64,2.62,7.57,1.27,11.36,1.67-.6,3.36-.76,3.44-6,3-2-.33-3.89-1.35-6-1A8.24,8.24,0,0,1,116.29,51.13Z" transform="translate(-4.33 -1.72)"/><path class="cls-25" d="M54.31,42.09c-.16,2.34-.05,4.58,2.07,6.17,1.72,1.28,1.8,2.93,1,4.75-2.79-1.44-5.46-3-7-5.94l.27-.23c2.11-1.15-.24-3.78,1.66-5A1.76,1.76,0,0,1,54.31,42.09Z" transform="translate(-4.33 -1.72)"/><path class="cls-26" d="M126.29,54.12c1.32-2.36,5.38.78,6-3,2.22.24,3.73,1.47,3.87,3.66.18,2.65-2.34,3.16-4,4.27-.75-.74-.57-2-1.59-2.6-.52-.21-1-.38-1.58-.55a5.53,5.53,0,0,1-1-.42,4.5,4.5,0,0,1-1.66-1.37Z" transform="translate(-4.33 -1.72)"/><path class="cls-27" d="M110.28,62.88c2.65-3.06,6.09-4.05,10-3.76-1.06,2.18,1.79,6.95-4,6C114.94,62.65,112.08,64.18,110.28,62.88Z" transform="translate(-4.33 -1.72)"/><path class="cls-28" d="M62.31,57.12c.79,3-2.79,5-2,8H55C59.93,64.51,56.21,56,62.31,57.12Z" transform="translate(-4.33 -1.72)"/><path class="cls-29" d="M44.21,86.44,37.32,83.1c-.66-.41-1.37-.75-1.65-1.57,0-4,2.22-5.51,6-5.21,5.62,2.7.84,3.56-1.13,4.78,1.39,1.52,3.61,1.51,4.31,3.41A1.83,1.83,0,0,1,44.21,86.44Z" transform="translate(-4.33 -1.72)"/><path class="cls-30" d="M44.21,86.44l.1-2.32c.17-3.87,3.79-3.54,6-5A2,2,0,0,1,52.51,81c-.14.65-.74.8-1.19,1.12-.13,3.3-4.87,2.16-5.14,5.32Z" transform="translate(-4.33 -1.72)"/><path class="cls-31" d="M110.28,62.88a11.37,11.37,0,0,1,4.6-1c2.63.21,2.24,1.59,1.43,3.23a3.62,3.62,0,0,1-3.92,2.19,11.41,11.41,0,0,1-4-2.09l-.17-.25C108.88,64.27,109.58,63.58,110.28,62.88Z" transform="translate(-4.33 -1.72)"/><path class="cls-32" d="M42.31,77.09c-3.4-.1-5.67,1.16-6,4.85-2,1-3.47.28-4.59-1.49-.51-2.79,1.7-3.17,3.48-3.93.4-.26.81-.49,1.22-.71a9.75,9.75,0,0,1,1.24-.65A5.82,5.82,0,0,1,41.74,75l1.59.12a1.09,1.09,0,0,1,0,.95C43,76.43,42.92,77,42.31,77.09Z" transform="translate(-4.33 -1.72)"/><path class="cls-33" d="M27.27,79.18c-4.7-.16-9.13-1.21-13-4.1-.71-.54-.26-1.14,0-1.7a1.13,1.13,0,0,1,1-.63,26.39,26.39,0,0,1,4.3,1.67c2.4,1.13,5.14,1.43,7.37,3a1.8,1.8,0,0,1,.58,1.18C27.51,78.79,27.39,79,27.27,79.18Z" transform="translate(-4.33 -1.72)"/><path class="cls-33" d="M32.27,80.21l4,1.73,1,1.16-1,.07a3,3,0,0,1-4-.06c-.49-.39-1.28-1.21-1.45-1.1-4.13,2.72-3.84-.06-3.6-2.83l.2-.23C29.54,77.6,31,78.7,32.27,80.21Z" transform="translate(-4.33 -1.72)"/><path class="cls-34" d="M48.32,33.13c.36,3.24-.11,6.15-3.12,8.08h-.44l-.42-.1a2.89,2.89,0,0,1-.92-1.8c-.08-1.52,1-3,.31-4.52a2.44,2.44,0,0,1,.51-2,3.51,3.51,0,0,1,2.1-.63A2.69,2.69,0,0,1,48.32,33.13Z" transform="translate(-4.33 -1.72)"/><path class="cls-35" d="M58.17,53.22l4.14-2.11a3.14,3.14,0,0,1,3.77-.45c1.92,2.45-.43,3.18-1.76,4.32l-2,.32C60.75,55,59,55,58.17,53.22Z" transform="translate(-4.33 -1.72)"/><path class="cls-36" d="M130.25,59.76c-2.4,1.4-5.11,3.74-5.28-1.72-.37-2.62,1.47-2.84,3.32-3.06l-.09.38c1.14.78,1.38,2.15,2.12,3.19A1.19,1.19,0,0,1,130.25,59.76Z" transform="translate(-4.33 -1.72)"/><path class="cls-21" d="M48.31,90.14c1.23-.37,2,.52,3,1,1.2.52,2.61.41,3.69,1.29.87.81,2.83.67,2.34,2.67l-.15.17C53.53,94.74,49.13,95.53,48.31,90.14Z" transform="translate(-4.33 -1.72)"/><path class="cls-37" d="M80,92.93l-1.56.26L78.15,93c-.81-.84-2.2-1.12-2.41-2.54a2,2,0,0,1,1-1.94,7.41,7.41,0,0,1,6.21.08C84.47,91.73,81.22,91.65,80,92.93Z" transform="translate(-4.33 -1.72)"/><path class="cls-38" d="M116.29,51.13c1.58.18,3.67-.68,4,2v2h-4Z" transform="translate(-4.33 -1.72)"/><path class="cls-39" d="M116.94,44.31c2.22-1.57,4.45-1.18,6.68-.41C121.46,45.76,119.19,44.91,116.94,44.31Z" transform="translate(-4.33 -1.72)"/><path class="cls-40" d="M98.3,87.11c-1.15-.29-3.19.67-3.26-1-.07-1.47,1.46-2.75,3.26-3C102.39,84.44,97.06,85.77,98.3,87.11Z" transform="translate(-4.33 -1.72)"/><path class="cls-41" d="M37.48,36.44a6.4,6.4,0,0,1-.24-6.65C38.68,32,38.28,34.21,37.48,36.44Z" transform="translate(-4.33 -1.72)"/><path class="cls-42" d="M54.23,67.24c1.14,0,1.89.48,2,1.69a1.73,1.73,0,0,1-2,2.07c-1.22,0-1.72-.78-1.71-1.92A1.67,1.67,0,0,1,54.23,67.24Z" transform="translate(-4.33 -1.72)"/><path class="cls-43" d="M127.12,63.7c1.87-.44,3.76-1.43,4.92.68.25.46,0,1.76-.19,1.8C129.52,66.73,129,64.05,127.12,63.7Z" transform="translate(-4.33 -1.72)"/><path class="cls-44" d="M108.36,65.22c1.74-.07,3.71-.59,4,2.09a2.07,2.07,0,0,1-2,2.09C110,67.9,108.17,67.05,108.36,65.22Z" transform="translate(-4.33 -1.72)"/><path class="cls-45" d="M53,104.39c1.48-1.64,3.07-1.43,5-.63C56.38,105.92,54.58,104.77,53,104.39Z" transform="translate(-4.33 -1.72)"/><path class="cls-46" d="M40.06,9.21c1.39-.06,2.19.55,2.15,2,0,.65-.32,1.62-1,1.29a6,6,0,0,1-2.4-2.22C38.49,9.72,39.36,9.26,40.06,9.21Z" transform="translate(-4.33 -1.72)"/><path class="cls-47" d="M15.05,73.25a4.66,4.66,0,0,0-.73.13c-1.77-.21-3.4-.66-4.42-2.3a1.54,1.54,0,0,1,.52.06,3.65,3.65,0,0,1,2.07-1,4.68,4.68,0,0,1,3.09.69C16.23,71.78,17.6,72.93,15.05,73.25Z" transform="translate(-4.33 -1.72)"/><path class="cls-48" d="M44.32,35.12c4,1.37-1.17,2.69,0,4.05-1.94.36-1.2-1.53-1.88-2.23a1,1,0,0,0-.15-.81c.09-.34.18-.68.28-1A1.12,1.12,0,0,1,44.32,35.12Z" transform="translate(-4.33 -1.72)"/><path class="cls-49" d="M42.42,36.94l1.88,2.23c0,.65,0,1.3,0,1.95C39.05,41.86,41.71,39,42.42,36.94Z" transform="translate(-4.33 -1.72)"/><path class="cls-50" d="M130.25,59.76c0-.2,0-.4,0-.59a3.15,3.15,0,0,1,.08-4.12c4-.23,2,2.3,1.84,4Z" transform="translate(-4.33 -1.72)"/><path class="cls-51" d="M80,92.93c.5-1.92,2.81-2.07,3.61-3.7.21-.39.46-.44.77-.1l.2.09C84.29,92,82.58,93.05,80,92.93Z" transform="translate(-4.33 -1.72)"/><path class="cls-52" d="M108.3,59.12h-4c0-.67,0-1.33,0-2C105.48,58.09,108.65,55.07,108.3,59.12Z" transform="translate(-4.33 -1.72)"/><path class="cls-53" d="M36.46,73.05a1,1,0,0,0,.86-.31l2.38,1.19c-.48,1.07-1.57,1.48-2.38,2.19h0A2.63,2.63,0,0,1,34.07,75C34.21,73.55,34.76,72.6,36.46,73.05Z" transform="translate(-4.33 -1.72)"/><path class="cls-54" d="M43.32,50.61c-.87-.13-.91-.81-.91-1.45s0-1.43.91-1.42.91.78.91,1.42S44.2,50.49,43.32,50.61Z" transform="translate(-4.33 -1.72)"/><path class="cls-55" d="M38.25,45.14c0,.64,0,1.41-.93,1.4s-.9-.78-.9-1.42,0-1.42.92-1.41S38.2,44.49,38.25,45.14Z" transform="translate(-4.33 -1.72)"/><path class="cls-56" d="M32.32,83.11l4,.06A1.85,1.85,0,0,1,34.06,85C32.85,85,32.44,84.17,32.32,83.11Z" transform="translate(-4.33 -1.72)"/><path class="cls-10" d="M36.24,63.08c-.06.64,0,1.43-.93,1.42s-.9-.78-.9-1.42,0-1.42.91-1.42S36.19,62.44,36.24,63.08Z" transform="translate(-4.33 -1.72)"/><path class="cls-57" d="M22.29,85.19c.64.06,1.42,0,1.42.93s-.79.9-1.43.9-1.42,0-1.41-.91S21.64,85.24,22.29,85.19Z" transform="translate(-4.33 -1.72)"/><path class="cls-27" d="M128.29,55c-1.32.79-2.8,1.4-3.32,3.06-1.77-2,.56-2.72,1.32-3.92Z" transform="translate(-4.33 -1.72)"/><path class="cls-58" d="M317.83,39l1-2c.82.39,2.1.68,1.7,1.8C319.93,40.52,318.77,39.1,317.83,39Z" transform="translate(-4.33 -1.72)"/><path class="cls-59" d="M37.32,76.12a3.88,3.88,0,0,1,2.38-2.19l2,1.07Z" transform="translate(-4.33 -1.72)"/><path class="cls-60" d="M460.18,39.79c0-7.15.35-14.33-.13-21.45-.32-4.72,1.46-5.46,5.58-5.28,7.47.31,15,.38,22.45,0,14.47-.68,22.88,10.57,24.11,23.19C514,54.73,499.55,64.3,484.25,66c-6.91.75-14,.15-20.94.38-2.86.1-3.21-1.23-3.17-3.59C460.24,55.1,460.18,47.45,460.18,39.79Z" transform="translate(-4.33 -1.72)"/><path class="cls-61" d="M12.35,71.06l-1.93.08a.31.31,0,0,1-.18-.49c-1-1.81-3.13-2.59-3.92-4.55l1-4.89c1-.47,2-1.18,3-.13.52,1.2,1.23.48,1.9.19l3,.95A5.9,5.9,0,0,1,14.89,67,9.29,9.29,0,0,0,12.35,71.06Z" transform="translate(-4.33 -1.72)"/><path class="cls-62" d="M6.32,66.1c1.79,1.1,3.42,2.33,3.92,4.55a12.36,12.36,0,0,1-5-4.48Z" transform="translate(-4.33 -1.72)"/><path class="cls-63" d="M88.23,15.14c3.66,6.91,6.4,14,4,22a1.58,1.58,0,0,1-1.89.32c-1.32-1.2-1.38-3.18-2.71-4.38a1.69,1.69,0,0,0-1.43-.73c-1.13-3.43-4.26-5.05-6.66-7.31a2,2,0,0,1,.79-1.9l4-2C85.9,21,86,20,85.69,18.76a3.87,3.87,0,0,1,.6-3.6Z" transform="translate(-4.33 -1.72)"/><path class="cls-64" d="M84.33,89.13a2.91,2.91,0,0,1-.77.1l-7.26-.12c-.78.39-1.06-.08-1.26-.72a1.15,1.15,0,0,0-.19-1.74c-.21-1.37-1.1-2.41-1.67-3.6L83.6,77.29q.36.09.72.15c.82.7,1.59,1.45,2.35,2.2a4.19,4.19,0,0,1,1,1.58,14,14,0,0,0,1,4.07Z" transform="translate(-4.33 -1.72)"/><path class="cls-65" d="M69.32,9.14c3.22,2.85,6.88,5.23,9.12,9.1.56,1,1.69,1.58.87,2.9-1.71,2.62-3.48.43-5.22.07-2.67-1.75-5.28-3.55-5.63-7.13C69.39,12.55,68.18,10.64,69.32,9.14Z" transform="translate(-4.33 -1.72)"/><path class="cls-66" d="M87.3,81.12l-1-1c-.48-1-.47-2.09-1.07-3,2.24-1.55,4.28-3.5,7.23-3.65a43.35,43.35,0,0,0,3.63-3c1.32-1,2.57-2.2,4.44-1.29,0,3.59-.79,6.63-4.71,8-1.7.6-2.84,2.16-4.22,3.32S89,82.6,87.3,81.12Z" transform="translate(-4.33 -1.72)"/><path class="cls-67" d="M54.31,42.09l-2,0a1.36,1.36,0,0,1-2,0v-9c-.74-.94-2.15-1.15-2.65-2.37a4.37,4.37,0,0,1,.18-3.67,5.71,5.71,0,0,1,3-2.39c2.89.18,2.26,2.41,2.42,4.17a17.89,17.89,0,0,0,.86,8.43c.14,1.16.27,2.31.4,3.46Z" transform="translate(-4.33 -1.72)"/><path class="cls-46" d="M74.31,55.14v-2c5.78,0,6.88-1.32,6-5.92-.65-3.47-4.24-.89-5.62-3.44,2.49-.91,5.59-1.6,6.83.22,1.85,2.71,1.07,6.47.47,9.66-.46,2.43-3,1.22-4.7,1.46A21.28,21.28,0,0,1,74.31,55.14Z" transform="translate(-4.33 -1.72)"/><path class="cls-68" d="M90.3,37.13h1.91c.45,1.52-.8,2.63-.95,4-1.84,1-2,3.3-3.47,4.57-1.36.17-2.73.36-2.57-1.72-2.27-3.3.19-6.07,1-9a4.7,4.7,0,0,1,2,1.57C88.41,38.31,89.64,36.75,90.3,37.13Z" transform="translate(-4.33 -1.72)"/><path class="cls-69" d="M100.3,69.21l-4,1.85c-1.05,1.07-2.21,1.8-3.79,1.38.81-6,1.22-6.22,9.82-5.4a.62.62,0,0,1,1,.07l-2,1.84C101.06,69.53,100.76,69.64,100.3,69.21Z" transform="translate(-4.33 -1.72)"/><path class="cls-69" d="M87.88,67.66c-1.1,4.71-4.94,1.17-7,2.68C80.42,67.77,78.59,64,84,66A16.87,16.87,0,0,1,87.88,67.66Z" transform="translate(-4.33 -1.72)"/><path class="cls-70" d="M62.49,18.38c-1.19,1.17-1.56,3.52-4.05,2.81a7.92,7.92,0,0,1-5.14,1.48c-1.88-.64-2-1.94-1.33-3.54a4.1,4.1,0,0,1,2-1.15c1.78-.36,3.36-1.34,5.13-1.74C60.61,16.29,62.53,15.75,62.49,18.38Z" transform="translate(-4.33 -1.72)"/><path class="cls-14" d="M74.31,57.12c1.57.19,3.67-.68,4,2a2.55,2.55,0,0,0,0,4c-.33,2.7-2.47,1.79-4,2a.87.87,0,0,1-1.19,0,3.24,3.24,0,0,1-.26-1.34c.26-2.26-1.89-5.07,1.49-6.63Z" transform="translate(-4.33 -1.72)"/><path class="cls-71" d="M63.31,29.8a15.6,15.6,0,0,1,0,10.61A16.21,16.21,0,0,1,63.31,29.8Z" transform="translate(-4.33 -1.72)"/><path class="cls-72" d="M52.32,19.15c0,1.45,0,2.89,2,3a1.7,1.7,0,0,1,.12,2.28l-.17,1.66c-1.14.75.58,3.21-1.89,3.17-.3-1.56.67-3.76-2-4.1l-.58-.6a5.34,5.34,0,0,1,.32-5.5A1.82,1.82,0,0,1,52.32,19.15Z" transform="translate(-4.33 -1.72)"/><path class="cls-73" d="M62.49,18.38c-1-1.68-2.7-1.13-4.18-1.25a1.7,1.7,0,0,1-.4-1.84c.91-1.43,2.59-1.44,3.9-2.14l.62-.14C65.3,14.77,64.45,16.57,62.49,18.38Z" transform="translate(-4.33 -1.72)"/><path class="cls-74" d="M64.31,45.29l4-.19c.47.48,1.23.69,1.38,1.46-.06,1.7-.3,3.3-2.11,4.08a2.79,2.79,0,0,1-1.37-.21,6.54,6.54,0,0,1-2.44-2.51A2.32,2.32,0,0,1,64.31,45.29Z" transform="translate(-4.33 -1.72)"/><path class="cls-75" d="M54.43,11.21l6.88-.16c.38.65.75,1.31,1.12,2l-.28.31c-2.92.62-5.85,1.23-8.86.67a2.84,2.84,0,0,1-1.15-.78C51.86,11.35,53.7,11.91,54.43,11.21Z" transform="translate(-4.33 -1.72)"/><path class="cls-76" d="M52.37,29.24l1.89-3.17c0,3.75-.07,7.5-.11,11.24C51.62,35.05,52.56,32,52.37,29.24Z" transform="translate(-4.33 -1.72)"/><path class="cls-77" d="M73.31,65.11l1,0c0,1,.08,2,.13,3,.9,1.67,1.22,3.34,0,5a4,4,0,0,1-2,3.2L72.26,76c-.79-3.62-.11-7.38-1.06-11A1.64,1.64,0,0,1,73.31,65.11Z" transform="translate(-4.33 -1.72)"/><path class="cls-78" d="M74.09,21.21c1.73-.48,3.49,1,5.22-.07a2.08,2.08,0,0,1,1,2L79.52,25A11.15,11.15,0,0,1,74.09,21.21Z" transform="translate(-4.33 -1.72)"/><path class="cls-79" d="M64.31,45.29l0,2.85c0,1.64-.85,1.66-2,1-4.07-1.25,1.1-2.55,0-3.82Z" transform="translate(-4.33 -1.72)"/><path class="cls-80" d="M85.22,44c.69,1.28,1.91,1.12,3.08,1.12.38-.52.74-.52,1.1,0-1.11,3.57-3.16,1.77-5,.87C84.36,45.21,84.31,44.39,85.22,44Z" transform="translate(-4.33 -1.72)"/><path class="cls-81" d="M85.23,77.08c.89.18,2.12-.31,2.53.81S86.6,79.22,86.3,80.1c-1.83,0-2-1.25-2-2.66Z" transform="translate(-4.33 -1.72)"/><path class="cls-82" d="M74.39,73.14c0-1.68,0-3.35,0-5C76.39,69.79,77.77,71.46,74.39,73.14Z" transform="translate(-4.33 -1.72)"/><path class="cls-83" d="M77.38,47.64a1.42,1.42,0,0,1,.82,1.64c-.08.62-.14,1.46-1.07,1.24-.73-.17-.81-.92-.74-1.57S76.55,47.63,77.38,47.64Z" transform="translate(-4.33 -1.72)"/><path class="cls-82" d="M78.3,63.12a1.85,1.85,0,0,1-1.92-2.24c.07-1.22.86-1.64,1.92-1.76Z" transform="translate(-4.33 -1.72)"/><path class="cls-84" d="M54.43,24.41l-.12-2.28,4.13-.94A8.63,8.63,0,0,1,54.43,24.41Z" transform="translate(-4.33 -1.72)"/><path class="cls-85" d="M92.47,72.44l3.79-1.38c-.22,2.48-2,2.39-3.81,2.37A4.68,4.68,0,0,1,92.47,72.44Z" transform="translate(-4.33 -1.72)"/><path class="cls-15" d="M103.27,67.11a7.93,7.93,0,0,1-1-.07c.44-2.65,2.5-1.74,4.09-1.85A3.42,3.42,0,0,1,103.27,67.11Z" transform="translate(-4.33 -1.72)"/><path class="cls-86" d="M69.31,46.13c-.34-.34-.67-.68-1-1a4.51,4.51,0,0,1,4,1l-.12,1C70.72,48.15,70,47.3,69.31,46.13Z" transform="translate(-4.33 -1.72)"/><path class="cls-87" d="M87.3,37.13c-.88-.47-1-1.34-1.09-2.18l0-2.61,1.12-1.21C88,33.13,89.13,35.13,87.3,37.13Z" transform="translate(-4.33 -1.72)"/><path class="cls-88" d="M69.32,9.14c-.24,1.65.59,3.5-.86,4.94a12.92,12.92,0,0,1,0-5.9Z" transform="translate(-4.33 -1.72)"/><path class="cls-60" d="M419.27,66.15H371.08l24.07-50.49Z" transform="translate(-4.33 -1.72)"/><path class="cls-89" d="M79.2,12.87c-.46-2.9-6.06-1.35-4.63-5.55.63-1.86,2.13-.89,3.29-.36C80.78,8.29,80.7,10.35,79.2,12.87Z" transform="translate(-4.33 -1.72)"/><path class="cls-90" d="M86.29,15.16c.07,1.43-.08,2.82,1,4.14.88,1.1-.06,2.12-1.07,2.77s-1.81.49-1.9-.93A10,10,0,0,0,84,18.26c-.54-1.4-2.66-2.59-1.28-4.22S84.29,17.21,86.29,15.16Z" transform="translate(-4.33 -1.72)"/><path class="cls-91" d="M27.17,78.19l-7.93-3c0-1.59-2.08-2.31-1.75-4.06a6.3,6.3,0,0,1,.21-1.37C18.38,68,18.62,66,20.4,65a7.33,7.33,0,0,1,4,1.93c1.76,3,1,6.87,3.67,9.49C28.43,77.3,29.06,78.4,27.17,78.19Z" transform="translate(-4.33 -1.72)"/><path class="cls-92" d="M27.17,78.19c.63-.28,1-.6.17-1.09-.18-4.78,1.18-6.1,6.22-6.07,1.41,0,2.53.49,2.9,2a3.54,3.54,0,0,0-2.13,2c.11,1.23,1.55,1.13,2,2-.88,1.65-4.09.24-4.06,3.09L27.47,79A4.44,4.44,0,0,0,27.17,78.19Z" transform="translate(-4.33 -1.72)"/><path class="cls-93" d="M33.56,71c-3.19.88-5.77,2.39-6.22,6.07-3.47-2.7-3.19-6.46-2.91-10.22A35,35,0,0,1,33.56,71Z" transform="translate(-4.33 -1.72)"/><path class="cls-94" d="M20.4,65c-.48,1.81-.68,3.72-2.07,5.16-2,0-3.14-1.37-4-3a7.76,7.76,0,0,1,1-4.88A10.68,10.68,0,0,1,20.4,65Z" transform="translate(-4.33 -1.72)"/><path class="cls-95" d="M12.28,61.27l-1.55,2.1c-.58-.69-1.42-1.34-.35-2.29Z" transform="translate(-4.33 -1.72)"/><path class="cls-96" d="M73.18,83.05c2.69.31,3.54,1.6,2.13,4.06-3,2.16-6.42,1.45-9.75,1.41-3.09-.4-6.45.89-9.25-1.41a1.83,1.83,0,0,1-2-2c1.72-1.66,3.8-1.36,5.9-1.17s4.17.59,6.09-.64Z" transform="translate(-4.33 -1.72)"/><path class="cls-97" d="M42.31,77.09l1.06-1,6.93,3.1-6,5A8.89,8.89,0,0,1,42,83.39c-1-.63-2.92-.53-2.72-2.09.16-1.29,1.1-2.2,3-2.31C45.06,78.82,42,77.76,42.31,77.09Z" transform="translate(-4.33 -1.72)"/><path class="cls-98" d="M66.3,83.3c-1.22,3.22-4,1.46-6,1.75a44,44,0,0,1-6,.06c-2.19.19-1.68-2.31-3-3L52.51,81C57.31,80.57,61.53,83.61,66.3,83.3Z" transform="translate(-4.33 -1.72)"/><path class="cls-99" d="M52.32,19.15l-2,0a4,4,0,0,1-1.72-.55,5,5,0,0,1-2-1.4,10,10,0,0,1,3.65-4.11,1.43,1.43,0,0,1,2,0l.17.22c.85,1,2.59.7,3.19,2.1a4.09,4.09,0,0,1-1.35,3.71Z" transform="translate(-4.33 -1.72)"/><path class="cls-100" d="M42.15,31.4c-1.9-4.26-.81-7.94,2.16-11.26a4.08,4.08,0,0,1,1.28,3c0,1.89.24,3.81-.7,5.58C42.25,27.84,43.4,30.85,42.15,31.4Z" transform="translate(-4.33 -1.72)"/><path class="cls-72" d="M44.31,23.13v-3l2.33-3c1,0,2.08-.15,2.69,1-1.64,1.82,1.09,5.48-2.7,6.38A3.49,3.49,0,0,1,44.31,23.13Z" transform="translate(-4.33 -1.72)"/><path class="cls-101" d="M42.15,31.4c1.54,0-2.33-5,2.13-2.29,1.27,1.32,1,2.66,0,4v2l-1.77,0C42.41,33.87,42.28,32.64,42.15,31.4Z" transform="translate(-4.33 -1.72)"/><path class="cls-102" d="M52.29,13.09l-2,0c.47-2.65,2.52-1.78,4.14-1.85Z" transform="translate(-4.33 -1.72)"/><path class="cls-103" d="M89.4,45.13l-1.1,0c-.06-2.1-.21-4.27,3-4C91.57,42.89,90.17,43.86,89.4,45.13Z" transform="translate(-4.33 -1.72)"/><path class="cls-5" d="M74.3,57.12c-2.54,2,1.75,5-1,7-1.76.12-3.58.52-5-1C68.15,58.93,70.18,57,74.3,57.12Z" transform="translate(-4.33 -1.72)"/><path class="cls-104" d="M66.32,50.13h1c1.35.54,3.11-.55,4.2,1-1.69,2.62-3.64,4.75-7.21,3.81l2-3.84c-.25-.23-.33-.46-.23-.68S66.24,50.13,66.32,50.13Z" transform="translate(-4.33 -1.72)"/><path class="cls-105" d="M71.53,51.17c-1.42-.24-3.08.45-4.2-1l2-4,2.83,1C72.54,48.59,73.19,50.06,71.53,51.17Z" transform="translate(-4.33 -1.72)"/><path class="cls-82" d="M68.32,63.09a8.44,8.44,0,0,1,5,1v1l-2.08.06a3.73,3.73,0,0,1-2.64,1.09,10.87,10.87,0,0,1-2.21-.05,3.1,3.1,0,0,1-1.95-.93l-.19-.22C64.68,62.5,66.74,63.29,68.32,63.09Z" transform="translate(-4.33 -1.72)"/><path class="cls-106" d="M100.3,69.21a1.22,1.22,0,0,1,.92-.26c.6,2.16,3.43,2.14,4.13,4.2l0,.07c-1.06.61-2.41.81-2.94,2.15l-4.2,3.69-9.58,6.23c-3.2-.49-2.28-2.33-1.37-4.17,4.71-.31,6.18-6.34,11.1-6.28C96.79,72.21,99.9,71.17,100.3,69.21Z" transform="translate(-4.33 -1.72)"/><path class="cls-107" d="M62.31,91.12c-1.74-.16-2.61,1.42-4,2l-.66-.41c-2.46-3.71-2.2-4.35,2-4.55,2.3-.1,4.61-.06,6.92,0,2.22.42,4.27.91,1.56,3.52C66.13,92.22,64.14,92.47,62.31,91.12Z" transform="translate(-4.33 -1.72)"/><path class="cls-108" d="M62.31,91.12l6,0a4.75,4.75,0,0,1,2.1-.87,2.94,2.94,0,0,1,2.13.76,1.74,1.74,0,0,1-.24,2.11c-1.21,2.05-2.57,2.7-4.42.64C66.42,92.1,63,94.62,62.31,91.12Z" transform="translate(-4.33 -1.72)"/><path class="cls-109" d="M72.3,93.1v-2c1.32-1.23,2.65-1,4,0,1.16.07,2,.5,1.86,1.85Z" transform="translate(-4.33 -1.72)"/><path class="cls-110" d="M57.31,95.11l-3-2c1.33-1.24,2.66-1,4,0h0l1,2.31Z" transform="translate(-4.33 -1.72)"/><path class="cls-111" d="M66.32,50.13l0,1-4,0c0-.65,0-1.31,0-2a2.07,2.07,0,0,0,2-1A1.81,1.81,0,0,1,66.32,50.13Z" transform="translate(-4.33 -1.72)"/><path class="cls-112" d="M68.28,65.1l3,.07c3.13,3.34,2.18,7.07,1,10.82-.89.49-1.58,1.39-2.76,1.22a1.25,1.25,0,0,1-1.3.1c-.28-.41-.6-1.06-.34-1.34,3.12-3.37,3.06-6.68,0-10C67.74,65.76,68,65.34,68.28,65.1Z" transform="translate(-4.33 -1.72)"/><path class="cls-113" d="M68.23,77.05l1.27.16c-2.51,1.85-5.11,1.64-7-.58A5.79,5.79,0,0,1,62.24,69a2.7,2.7,0,0,1,1.07,1.8C63.06,74.34,66.72,74.86,68.23,77.05Z" transform="translate(-4.33 -1.72)"/><path class="cls-114" d="M62.36,71.15,62.24,69c-.1-1.72,1.67-2.34,2.19-3.69l1.9,0C66.39,68.14,66.69,71.2,62.36,71.15Z" transform="translate(-4.33 -1.72)"/><path class="cls-115" d="M102.45,75.37c-.15-2.25,1.33-2.29,2.94-2.15A4.38,4.38,0,0,1,102.45,75.37Z" transform="translate(-4.33 -1.72)"/><path class="cls-116" d="M58.31,93.11h-4c-1-.64-2.54-.52-3-2l5-4h10a1.33,1.33,0,0,1,0,2H56.66C57.12,90.86,59.08,91.47,58.31,93.11Z" transform="translate(-4.33 -1.72)"/><path class="cls-117" d="M50.32,42.13h2c-.61,1.56,1.35,4-1.7,4.72C50.53,45.27,50.42,43.7,50.32,42.13Z" transform="translate(-4.33 -1.72)"/><path class="cls-72" d="M48.32,31.13a1.82,1.82,0,0,1,2,2h-4A1.67,1.67,0,0,1,46.17,31,1.69,1.69,0,0,1,48.32,31.13Z" transform="translate(-4.33 -1.72)"/><path class="cls-118" d="M130.29,55.05c0,1.37,0,2.74-.08,4.12-2.47-.32-1.74-2.33-2-3.81Z" transform="translate(-4.33 -1.72)"/><path class="cls-119" d="M36.33,77.12c-1.16-.21-2.7.58-3.38-.76-.53-1,.7-1,1.38-1.26l3,1Z" transform="translate(-4.33 -1.72)"/><path class="cls-120" d="M18.32,71.12c0,1.29,1,1.75,1.77,2.49,1.32,1.25,0,1.35-.85,1.54a7.83,7.83,0,0,1-4.19-1.9c1.29-.56.49-1.37.26-2.11A2.1,2.1,0,0,1,18.32,71.12Z" transform="translate(-4.33 -1.72)"/><path class="cls-121" d="M46.32,31.13v2h-2c0-1.34,0-2.67,0-4l0-6a2.1,2.1,0,0,1,2,1,3.59,3.59,0,0,1,.84,1.24,6.8,6.8,0,0,1,.13,2.25C47.29,28.87,47.33,30.15,46.32,31.13Z" transform="translate(-4.33 -1.72)"/><path class="cls-122" d="M76.3,91.1l-4,0h-2c-.37-3.53-.14-3.67,5-3l1,1Z" transform="translate(-4.33 -1.72)"/><path class="cls-123" d="M18.32,71.12l-3,0-3-.08c-.38-1.84-1.17-3.89,2-4,1.92.22,2.72,1.94,4,3Z" transform="translate(-4.33 -1.72)"/><path class="cls-103" d="M87.3,37.13v-6c1.83,1.59,3.52,3.24,3,6C89.3,39.35,88.3,39.33,87.3,37.13Z" transform="translate(-4.33 -1.72)"/><path class="cls-37" d="M75.32,88.11c-1.88.65-5.14-1-5,3h-2c1.1-2.43-.74-1.92-2-2,0-.67,0-1.33,0-2h9a5.52,5.52,0,0,1,.38.72S75.45,88,75.32,88.11Z" transform="translate(-4.33 -1.72)"/><path class="cls-124" d="M82.3,83c-.64-.05-1.41-.05-1.4-.92s.79-.9,1.43-.9,1.41,0,1.4.92S83,83,82.3,83Z" transform="translate(-4.33 -1.72)"/><path class="cls-125" d="M46.32,31.13v-4a1.41,1.41,0,0,1,2,0v4Z" transform="translate(-4.33 -1.72)"/><path class="cls-72" d="M48.31,27.13h-2v-2a3,3,0,0,1,4,0h0A1.83,1.83,0,0,1,48.31,27.13Z" transform="translate(-4.33 -1.72)"/><path class="cls-72" d="M54.3,19.12a6.81,6.81,0,0,1,1-4,2.08,2.08,0,0,1,3,0c0,.66,0,1.31,0,2A5.36,5.36,0,0,1,54.3,19.12Z" transform="translate(-4.33 -1.72)"/><path class="cls-126" d="M50.31,25.13h-4c0-.33,0-.66,0-1L48,22.56c-3.31-2.58.57-3,1.31-4.42l1,1C50.32,21.12,50.32,23.13,50.31,25.13Z" transform="translate(-4.33 -1.72)"/><path class="cls-127" d="M58.33,15.16h-3c-1.28-.1-2.88.29-2.84-1.84,3.23-.05,6.46-1,9.69,0C61.62,15.46,59.63,14.6,58.33,15.16Z" transform="translate(-4.33 -1.72)"/><path class="cls-128" d="M62.36,71.15c2.65-1.08,2.37-4.13,4-5.91l2-.14c5.84,4,3,8,0,12C64,77.36,62.86,74.56,62.36,71.15Z" transform="translate(-4.33 -1.72)"/></svg>