<?xml version="1.0" encoding="utf-8"?>
<!-- Generator: Adobe Illustrator 23.1.1, SVG Export Plug-In . SVG Version: 6.00 Build 0)  -->
<svg version="1.1" id="Layer_1" xmlns="http://www.w3.org/2000/svg" xmlns:xlink="http://www.w3.org/1999/xlink" x="0px" y="0px"
	 viewBox="0 0 100 125" style="enable-background:new 0 0 100 125;" xml:space="preserve">
<g>
	<path d="M10.7,72.1h31.9l5.4-9.7c0.4-0.7,1.1-1.1,2-1.1s1.6,0.4,2,1.1l5.4,9.8h31.9V27.9H10.7V72.1z M13.8,30.9h72.5V69H59.2
		l-4.6-8.2c-1-1.7-2.7-2.6-4.6-2.6s-3.6,1-4.6,2.7l-4.6,8.2h-27V30.9z"/>
	<path d="M32.8,39.2c-5.9,0-10.7,4.8-10.7,10.7s4.8,10.7,10.7,10.7s10.7-4.8,10.7-10.7S38.7,39.2,32.8,39.2z M25.1,49.9
		c0-4.2,3.5-7.7,7.7-7.7s7.7,3.5,7.7,7.7s-3.5,7.7-7.7,7.7C28.6,57.6,25.1,54.1,25.1,49.9z"/>
	<path d="M66.3,60.6c5.9,0,10.7-4.8,10.7-10.7s-4.8-10.7-10.7-10.7c-5.9,0-10.7,4.8-10.7,10.7S60.4,60.6,66.3,60.6z M66.3,42.2
		c4.2,0,7.7,3.5,7.7,7.7s-3.5,7.7-7.7,7.7s-7.7-3.5-7.7-7.7S62.1,42.2,66.3,42.2z"/>
</g>
</svg>
