<?xml version="1.0" encoding="utf-8"?>
<!-- Generator: Adobe Illustrator 23.1.1, SVG Export Plug-In . SVG Version: 6.00 Build 0)  -->
<svg version="1.1" id="Layer_1" xmlns="http://www.w3.org/2000/svg" xmlns:xlink="http://www.w3.org/1999/xlink" x="0px" y="0px"
	 viewBox="0 0 32 40" style="enable-background:new 0 0 32 40;" xml:space="preserve">
<path d="M25.3,21.2H6.7c-2.5,0-4.5-2-4.5-4.5c0-2.2,1.7-4.1,3.8-4.4C6.8,9,9.8,6.5,13.3,6.5c2.3,0,4.4,1.1,5.8,2.9
	c0.5-0.1,1-0.2,1.5-0.2c2.3,0,4.3,1.3,5.4,3.2c2.1,0.3,3.7,2.2,3.7,4.4C29.8,19.3,27.8,21.2,25.3,21.2z M6.7,14.3
	c-1.3,0-2.4,1.1-2.4,2.5c0,1.4,1.1,2.5,2.5,2.5h18.6c1.4,0,2.5-1.1,2.5-2.5c0-1.3-1.1-2.4-2.4-2.4l-0.7,0l-0.2-0.6
	c-0.6-1.5-2.1-2.5-3.8-2.5c-0.5,0-1.1,0.1-1.6,0.3l-0.8,0.3l-0.4-0.7c-1-1.6-2.7-2.6-4.6-2.6c-2.8,0-5.1,2.2-5.4,4.9l-0.1,1
	L6.7,14.3C6.7,14.3,6.7,14.3,6.7,14.3z"/>
</svg>
