<?xml version="1.0" encoding="utf-8"?>
<!-- Generator: Adobe Illustrator 23.1.1, SVG Export Plug-In . SVG Version: 6.00 Build 0)  -->
<svg version="1.1" id="Layer_1" xmlns:sketch="http://www.bohemiancoding.com/sketch/ns"
	 xmlns="http://www.w3.org/2000/svg" xmlns:xlink="http://www.w3.org/1999/xlink" x="0px" y="0px" viewBox="0 0 30 37.5"
	 style="enable-background:new 0 0 30 37.5;" xml:space="preserve">
<style type="text/css">
	.st0{fill-rule:evenodd;clip-rule:evenodd;}
</style>
<title>device_001-smartphone-phone-mobile-cellphone-tel-iphone</title>
<desc>Created with Sketch.</desc>
<g sketch:type="MSPage">
	<g transform="translate(-45.000000, -45.000000)" sketch:type="MSArtboardGroup">
		<path sketch:type="MSShapeGroup" class="st0" d="M53.5,46h13c0.8,0,1.5,0.7,1.5,1.5v25c0,0.8-0.7,1.5-1.5,1.5h-13
			c-0.8,0-1.5-0.7-1.5-1.5v-25C52,46.7,52.7,46,53.5,46z M53,69h14V51H53V69z M53,47.5c0-0.3,0.2-0.5,0.5-0.5h13
			c0.3,0,0.5,0.2,0.5,0.5V50H53V47.5z M53,72.5c0,0.3,0.2,0.5,0.5,0.5h13c0.3,0,0.5-0.2,0.5-0.5V70H53V72.5z M59.5,48h3
			c0.3,0,0.5,0.2,0.5,0.5c0,0.3-0.2,0.5-0.5,0.5h-3c-0.3,0-0.5-0.2-0.5-0.5C59,48.2,59.2,48,59.5,48z M57.5,49
			c0.3,0,0.5-0.2,0.5-0.5S57.8,48,57.5,48S57,48.2,57,48.5S57.2,49,57.5,49z M60,72.5c0.6,0,1-0.4,1-1s-0.4-1-1-1s-1,0.4-1,1
			S59.4,72.5,60,72.5z"/>
	</g>
</g>
</svg>
