<?xml version="1.0" encoding="utf-8"?>
<!-- Generator: Adobe Illustrator 23.1.1, SVG Export Plug-In . SVG Version: 6.00 Build 0)  -->
<svg version="1.1" id="Layer_1" xmlns="http://www.w3.org/2000/svg" xmlns:xlink="http://www.w3.org/1999/xlink" x="0px" y="0px"
	 viewBox="0 0 24 30" style="enable-background:new 0 0 24 30;" xml:space="preserve">
<title>Iconsset</title>
<path d="M23.2,8.3c-0.5-0.7-1.3-1.1-2.1-1.2c-3-0.6-6-0.9-9.1-0.9c-3.1,0-6.1,0.3-9.1,0.9C2,7.2,1.2,7.6,0.8,8.3
	C0.1,10,1,12.8,1.1,12.9l0.3,0.7c0.2,0.3,0.5,0.5,0.9,0.5c0.1,0,0.2,0,0.4,0c0.2,0.6,0.5,1.1,0.9,1.6c0.9,0.8,1.9,1.3,3.1,1.6
	c1,0.3,1.9,0.4,2.9,0.5c0.6,0.1,1.2-0.2,1.6-0.6l0.1-0.1c0.2-0.2,0.4-0.3,0.7-0.3c0.3,0,0.5,0.2,0.7,0.3l0.2,0.1
	c0.4,0.4,0.9,0.6,1.4,0.5h0.2c1-0.1,2-0.2,2.9-0.5c1.1-0.3,2.2-0.8,3.1-1.6c0.4-0.5,0.7-1,0.9-1.6c1,0.2,1.3-0.3,1.3-0.4l0.4-0.8
	C23,12.8,23.9,10,23.2,8.3z M19.6,15.1c-0.7,0.6-1.6,1-2.5,1.2c-0.9,0.2-1.8,0.4-2.7,0.5c-0.3,0-0.6-0.1-0.8-0.3l-0.1-0.1l-0.1-0.1
	c-0.4-0.3-0.8-0.5-1.3-0.6c-0.5,0-1,0.2-1.3,0.6l-0.1,0.1l-0.1,0.1c-0.2,0.2-0.5,0.3-0.8,0.3c-0.9-0.1-1.8-0.2-2.7-0.5
	c-0.9-0.2-1.8-0.6-2.5-1.2c-1-1.6-1.6-3.5-1.5-5.4c3-0.7,6.1-1,9.2-1c3.1,0,6.2,0.3,9.2,1C21.2,11.6,20.6,13.5,19.6,15.1z M22,12.5
	l-0.3,0.6h-0.1c0.3-1.2,0.5-2.5,0.5-3.8c0-0.2-0.1-0.4-0.4-0.5C18.6,8,15.3,7.6,12,7.7C8.7,7.6,5.4,8,2.2,8.8C2,8.9,1.8,9.1,1.8,9.3
	c0,1.3,0.1,2.6,0.5,3.8H2.2L2,12.6c-0.2-0.7-0.8-2.8-0.3-3.8c0.2-0.4,0.7-0.5,1.5-0.6C6,7.5,9,7.2,12,7.2c3,0,6,0.3,8.9,0.9
	c0.7,0.1,1.3,0.3,1.4,0.6C22.8,9.8,22.2,11.9,22,12.5z"/>
<path d="M7.6,9.5L7.6,9.5L6.2,9.6c-0.6,0-1,0.4-1,1s0.4,1,1,1l0,0l1.4,0.1l0,0c0.6,0,1.1-0.5,1.1-1.1C8.7,10,8.2,9.5,7.6,9.5z
	 M7.6,10.7l-1.4-0.1l1.3-0.1c0,0,0.1,0.1,0.1,0.1C7.7,10.6,7.7,10.7,7.6,10.7L7.6,10.7z"/>
<path d="M17.8,9.6L17.8,9.6l-1.4-0.1c-0.6,0-1.1,0.5-1.1,1.1c0,0.6,0.6,1.1,1.2,1.1l0,0l1.4-0.1c0.6,0,1-0.4,1-1S18.4,9.6,17.8,9.6
	L17.8,9.6z M16.5,10.7c-0.1,0-0.1,0-0.2-0.1c0,0,0.1-0.1,0.1-0.1l1.5,0.1L16.5,10.7z"/>
</svg>
