<?xml version="1.0" encoding="utf-8"?>
<!-- Generator: Adobe Illustrator 23.1.1, SVG Export Plug-In . SVG Version: 6.00 Build 0)  -->
<svg version="1.1"
	 id="svg3039" inkscape:version="0.48.3.1 r9886" sodipodi:docname="kani-kesken.JPG.svg" xmlns:cc="http://creativecommons.org/ns#" xmlns:dc="http://purl.org/dc/elements/1.1/" xmlns:inkscape="http://www.inkscape.org/namespaces/inkscape" xmlns:rdf="http://www.w3.org/1999/02/22-rdf-syntax-ns#" xmlns:sodipodi="http://sodipodi.sourceforge.net/DTD/sodipodi-0.dtd" xmlns:svg="http://www.w3.org/2000/svg"
	 xmlns="http://www.w3.org/2000/svg" xmlns:xlink="http://www.w3.org/1999/xlink" x="0px" y="0px" viewBox="0 0 2100 2100"
	 style="enable-background:new 0 0 2100 2100;" xml:space="preserve">
<style type="text/css">
	.st0{fill:none;stroke:#000000;stroke-width:100;}
	.st1{fill:none;stroke:#000000;stroke-width:15;}
</style>
<sodipodi:namedview  bordercolor="#666666" borderopacity="1" gridtolerance="47" guidetolerance="10" id="namedview3041" inkscape:current-layer="layer1" inkscape:cx="972.63792" inkscape:cy="797.6519" inkscape:pageopacity="0" inkscape:pageshadow="2" inkscape:window-height="884" inkscape:window-maximized="1" inkscape:window-width="1280" inkscape:window-x="0" inkscape:window-y="24" inkscape:zoom="0.13929739" objecttolerance="10" pagecolor="#ffffff" showgrid="false" width="1488.19px">
	</sodipodi:namedview>
<g id="layer1" transform="translate(0,-347.99979)" inkscape:groupmode="layer" inkscape:label="ääriviiva">
	<path id="path3049" inkscape:connector-curvature="0" class="st0" d="M365.7,1183c51.7-73,86.5-159.3,156.1-219
		c51-45.7,136.4-43.8,182.2-83.3c36-125.3,50.6-268.4,148.6-364.7c37.4-53.3,149.9-61,165.3,13.5c1.3,92.1,118.8-115,133.1,2.9
		c-27.4,104.4-50.5,222.6-145.2,288.5c-33.8,40.7-54.4,89.2-54.8,142.2c-11.6,70.7-51.4,183.7-10.6,228.9
		c77.7,54.8,156.2-13.8,236.7-16.2c95.4,9.5,191.8,20.2,279,62.8c96.5,37,169,116.2,241.1,187.2c81,105.9,148.7,230.5,159.6,365.6
		c-8.8,99.6,10.8,201.9-11.6,299.7c-21.6,38.6-73.8,70.4-17.6,98.1c12.8,68.6-119.7,72-173.5,85.1c-85.2,7.1-174.5,31.7-262.5,13.7
		c-63.3-28.4-81.3,50.4-153.2,28.8c-98-3.7-199,12.6-294.7-13.8c-82.1-4.8-160-20.1-243.2-14.6c-58.8,8.8-168.2-48.4-64.4-89.3
		c69.5-18,168-45.9,169.3-131.7c31-103.6-58.2-184.8-124.8-252.7c-56.9-72-113.5-150.3-138.8-238.8c-39.1-58.9-5.9-191.8-48.5-212.9
		c-54.6-19.4-75.7-72.6-131-93.7C352.1,1240.8,362.7,1211.4,365.7,1183L365.7,1183z"/>
	<path id="path3870" inkscape:connector-curvature="0" class="st1" d="M1171.3,2166.3c-73.2,5.4-143.9-22.8-217-11.4
		c-24.9-20.4,61.3-90.5,45.7-142.1c99.6-60.8,124.1,72.1,172.6,129.4l2.5,12.1L1171.3,2166.3L1171.3,2166.3z"/>
</g>
</svg>
